<svg width="100" height="100" viewBox="0 0 100 100" xmlns="http://www.w3.org/2000/svg">
  <defs>
    <pattern id="seigaiha" x="0" y="0" width="40" height="40" patternUnits="userSpaceOnUse">
      <!-- Traditional Seigaiha (blue wave) pattern -->
      <g fill="none" stroke="#C62828" stroke-width="0.5" opacity="0.3">
        <!-- First row of arcs -->
        <path d="M 0 20 A 10 10 0 0 1 20 20" />
        <path d="M 20 20 A 10 10 0 0 1 40 20" />
        <path d="M 40 20 A 10 10 0 0 1 60 20" />
        
        <!-- Second row of arcs (offset) -->
        <path d="M -10 40 A 10 10 0 0 1 10 40" />
        <path d="M 10 40 A 10 10 0 0 1 30 40" />
        <path d="M 30 40 A 10 10 0 0 1 50 40" />
        
        <!-- Inner arcs for depth -->
        <path d="M 2 20 A 8 8 0 0 1 18 20" />
        <path d="M 22 20 A 8 8 0 0 1 38 20" />
        <path d="M 42 20 A 8 8 0 0 1 58 20" />
        
        <path d="M -8 40 A 8 8 0 0 1 8 40" />
        <path d="M 12 40 A 8 8 0 0 1 28 40" />
        <path d="M 32 40 A 8 8 0 0 1 48 40" />
        
        <!-- Innermost arcs -->
        <path d="M 4 20 A 6 6 0 0 1 16 20" />
        <path d="M 24 20 A 6 6 0 0 1 36 20" />
        <path d="M 44 20 A 6 6 0 0 1 56 20" />
        
        <path d="M -6 40 A 6 6 0 0 1 6 40" />
        <path d="M 14 40 A 6 6 0 0 1 26 40" />
        <path d="M 34 40 A 6 6 0 0 1 46 40" />
      </g>
    </pattern>
  </defs>
  
  <rect width="100" height="100" fill="url(#seigaiha)" />
</svg>
